<svg width="24" height="23" viewBox="0 0 24 23" fill="none" xmlns="http://www.w3.org/2000/svg">
<path fill-rule="evenodd" clip-rule="evenodd" d="M3.66433 8.30708L9.50114 3.83219C10.962 2.71219 13.0378 2.71219 14.4987 3.83219L20.3355 8.30708C21.3759 9.10469 21.9336 10.3464 21.8229 11.6187L21.1527 19.3256C21.0664 20.319 20.1998 21.0831 19.1597 21.0831H15.2748C13.9097 21.0831 12.9457 19.8015 13.3774 18.5604L13.6303 17.8333C14.0581 16.6033 13.1028 15.3331 11.7499 15.3331C10.397 15.3331 9.44173 16.6033 9.86955 17.8333L10.1224 18.5604C10.5541 19.8015 9.59018 21.0831 8.22507 21.0831H4.84019C3.80001 21.0831 2.93348 20.319 2.84709 19.3256L2.17693 11.6187C2.06629 10.3464 2.62397 9.10469 3.66433 8.30708ZM4.60138 9.42957L10.4382 4.95469C11.3512 4.25469 12.6486 4.25469 13.5617 4.95469L19.3985 9.42957C20.0487 9.92808 20.3972 10.7041 20.3281 11.4994L19.6579 19.2063C19.6363 19.4546 19.4197 19.6456 19.1597 19.6456H15.2748C14.9335 19.6456 14.6925 19.3252 14.8004 19.0149L15.0533 18.2879C15.8049 16.1271 14.1266 13.8956 11.7499 13.8956C9.3732 13.8956 7.69494 16.1271 8.44652 18.2879L8.69941 19.0149C8.80733 19.3252 8.56635 19.6456 8.22507 19.6456H4.84019C4.58014 19.6456 4.36351 19.4546 4.34191 19.2063L3.67175 11.4994C3.6026 10.7041 3.95115 9.92808 4.60138 9.42957Z" fill="#363538"/>
</svg>
