<svg width="24" height="23" viewBox="0 0 24 23" fill="none" xmlns="http://www.w3.org/2000/svg">
<path fill-rule="evenodd" clip-rule="evenodd" d="M3.06726 5.6986C3.58607 5.0325 4.36107 4.55176 5.28169 4.55176H8.70423C9.62482 4.55176 10.3998 5.03244 10.9186 5.69853C11.4374 6.36452 11.7359 7.25123 11.7359 8.19987V10.1711C11.7359 10.3901 11.7396 10.6066 11.7432 10.8213C11.7561 11.585 11.7686 12.3268 11.6151 13.0813C11.409 14.0944 10.9184 15.1213 9.87568 16.46C9.02413 17.5533 8.0469 18.0954 7.1317 18.3182C6.23205 18.5371 5.4425 18.436 4.95909 18.3231C4.48614 18.2127 4.27591 17.8327 4.21037 17.574C4.14144 17.302 4.17126 16.9823 4.33741 16.7046C4.64667 16.1878 5.0863 15.3321 5.20123 14.5436C5.25776 14.1558 5.22634 13.8441 5.11926 13.6111C5.02245 13.4005 4.83606 13.1909 4.43157 13.0351C3.38703 12.6328 2.25 11.7706 2.25 10.1672V8.19999C2.25 7.25136 2.54852 6.36462 3.06726 5.6986ZM4.26932 6.55846C3.96225 6.95271 3.75 7.53071 3.75 8.19999V10.1672C3.75 10.9534 4.25284 11.417 4.99096 11.7013C5.72555 11.9843 6.22332 12.4471 6.492 13.0317C6.75041 13.5939 6.76583 14.2003 6.6868 14.7425C6.5637 15.5871 6.18907 16.4199 5.87388 17.0056C6.1367 17.0195 6.44033 17.0033 6.76247 16.9249C7.33784 16.7849 8.02356 16.4348 8.67362 15.6002C9.62742 14.3756 9.99242 13.5455 10.1428 12.8062C10.2636 12.2126 10.255 11.6667 10.2436 10.9406C10.2399 10.7056 10.2359 10.4517 10.2359 10.1711V8.19987C10.2359 7.53059 10.0237 6.95263 9.7166 6.55842C9.40962 6.1643 9.04378 5.98926 8.70423 5.98926H5.28169C4.94217 5.98926 4.57632 6.16431 4.26932 6.55846ZM13.0673 5.6986C13.5861 5.0325 14.3611 4.55176 15.2817 4.55176H18.7042C19.6248 4.55176 20.3998 5.03244 20.9186 5.69853C21.4374 6.36452 21.7359 7.25123 21.7359 8.19987V10.1711C21.7359 10.3901 21.7396 10.6066 21.7432 10.8213C21.7561 11.585 21.7686 12.3268 21.6151 13.0813C21.409 14.0944 20.9184 15.1213 19.8757 16.46C19.0241 17.5533 18.0469 18.0954 17.1317 18.3182C16.232 18.5371 15.4425 18.436 14.9591 18.3231C14.4861 18.2127 14.2759 17.8327 14.2104 17.574C14.1414 17.302 14.1713 16.9823 14.3374 16.7046C14.6467 16.1878 15.0863 15.3321 15.2012 14.5436C15.2578 14.1558 15.2263 13.8441 15.1193 13.6111C15.0224 13.4005 14.8361 13.1909 14.4316 13.0351C13.387 12.6328 12.25 11.7706 12.25 10.1672V8.19999C12.25 7.25136 12.5485 6.36462 13.0673 5.6986ZM14.2693 6.55846C13.9623 6.95271 13.75 7.53071 13.75 8.19999V10.1672C13.75 10.9534 14.2528 11.417 14.991 11.7013C15.7256 11.9843 16.2233 12.4471 16.492 13.0317C16.7504 13.5939 16.7658 14.2003 16.6868 14.7425C16.5637 15.5871 16.1891 16.4199 15.8739 17.0056C16.1367 17.0195 16.4403 17.0033 16.7625 16.9249C17.3378 16.7849 18.0236 16.4348 18.6736 15.6002C19.6274 14.3756 19.9924 13.5455 20.1428 12.8062C20.2636 12.2126 20.255 11.6667 20.2436 10.9406C20.2399 10.7056 20.2359 10.4517 20.2359 10.1711V8.19987C20.2359 7.53059 20.0237 6.95263 19.7166 6.55842C19.4096 6.1643 19.0438 5.98926 18.7042 5.98926H15.2817C14.9422 5.98926 14.5763 6.16431 14.2693 6.55846Z" fill="#363538"/>
</svg>
