<svg width="24" height="23" viewBox="0 0 24 23" fill="none" xmlns="http://www.w3.org/2000/svg">
<path fill-rule="evenodd" clip-rule="evenodd" d="M20.5005 4.55176C20.9146 4.55198 21.2505 4.87369 21.2505 5.27051V11.9788C21.2505 15.5513 18.2283 18.4474 14.5005 18.4476H11.73C11.3841 19.0198 10.7402 19.4058 10.0005 19.4059C8.89598 19.4059 8.00055 18.5478 8.00055 17.4893C8.00055 16.4307 8.89598 15.5726 10.0005 15.5726C10.932 15.5728 11.7119 16.1839 11.9341 17.0101H14.5005C17.3998 17.0099 19.7505 14.7574 19.7505 11.9788V5.27051C19.7505 4.87355 20.0863 4.55176 20.5005 4.55176ZM10.0005 17.0101C9.7244 17.0101 9.50055 17.2246 9.50055 17.4893C9.50055 17.7539 9.7244 17.9684 10.0005 17.9684C10.2765 17.9682 10.5005 17.7538 10.5005 17.4893C10.5005 17.2248 10.2765 17.0103 10.0005 17.0101Z" fill="#363538"/>
<path fill-rule="evenodd" clip-rule="evenodd" d="M12.9244 5.70569C15.473 5.57676 17.6813 7.38349 17.9478 9.81604L18.0445 10.7014C18.1984 12.1077 17.4108 13.4549 16.0787 14.063C15.2198 14.455 14.2303 14.4931 13.3414 14.1688L11.5875 13.5286C11.2404 13.402 10.8719 13.3368 10.5005 13.3368C10.1292 13.3368 9.7607 13.402 9.41363 13.5286L7.65973 14.1688C6.7708 14.4932 5.78128 14.4549 4.92242 14.063C3.59009 13.4549 2.80267 12.1079 2.9566 10.7014L3.05328 9.81604C3.31984 7.38337 5.5279 5.57653 8.07672 5.70569L10.5005 5.82829L12.9244 5.70569ZM13.0035 7.14132L10.5406 7.26579C10.5143 7.26712 10.4868 7.2671 10.4605 7.26579L7.99762 7.14132C6.24588 7.0525 4.72867 8.29389 4.54547 9.96578L4.44781 10.8511C4.36011 11.6519 4.80933 12.4188 5.56793 12.765C6.05676 12.9879 6.61964 13.0095 7.12555 12.8249L8.87945 12.1847C9.39705 11.9958 9.94668 11.8993 10.5005 11.8993C11.0544 11.8993 11.6041 11.9958 12.1216 12.1847L13.8755 12.8249C14.3815 13.0094 14.9444 12.988 15.4332 12.765C16.1915 12.4187 16.6409 11.6518 16.5533 10.8511L16.4556 9.96578C16.2725 8.294 14.755 7.05272 13.0035 7.14132Z" fill="#363538"/>
</svg>
