<svg width="24" height="23" viewBox="0 0 24 23" fill="none" xmlns="http://www.w3.org/2000/svg">
<path fill-rule="evenodd" clip-rule="evenodd" d="M3.2501 7.66667C3.2501 6.21117 4.48132 5.03125 6.0001 5.03125H18.0001C19.5189 5.03125 20.7501 6.21117 20.7501 7.66667C20.7501 8.83761 19.9532 9.83019 18.8509 10.1735L20.2418 19.06C20.3032 19.4526 20.021 19.8186 19.6114 19.8775C19.2017 19.9363 18.8198 19.6658 18.7584 19.2733L17.3542 10.3021H6.14599L4.7418 19.2733C4.68036 19.6658 4.29848 19.9363 3.88885 19.8775C3.47922 19.8186 3.19696 19.4526 3.2584 19.06L4.67978 9.97903C3.82774 9.53127 3.2501 8.66362 3.2501 7.66667ZM18.0105 8.86454C18.0032 8.86445 17.996 8.86447 17.9887 8.86458H6.0001C5.30975 8.86458 4.7501 8.32826 4.7501 7.66667C4.7501 7.00508 5.30975 6.46875 6.0001 6.46875H18.0001C18.6905 6.46875 19.2501 7.00508 19.2501 7.66667C19.2501 8.32494 18.6961 8.85919 18.0105 8.86454Z" fill="#363538"/>
</svg>
