<svg width="60" height="35" viewBox="0 0 60 35" fill="none" xmlns="http://www.w3.org/2000/svg">
<path d="M43.2812 13.54C42.2559 13.54 41.3281 13.2959 40.498 12.8076C39.668 12.3031 39.0088 11.6357 38.5205 10.8057C38.0322 9.95931 37.7881 9.03158 37.7881 8.02246C37.7881 7.02962 38.0322 6.11816 38.5205 5.28809C39.0088 4.44173 39.668 3.77441 40.498 3.28613C41.3281 2.79785 42.2559 2.55371 43.2812 2.55371C44.2741 2.55371 45.1855 2.79785 46.0156 3.28613C46.8457 3.77441 47.5049 4.44173 47.9932 5.28809C48.4977 6.11816 48.75 7.02962 48.75 8.02246C48.75 9.03158 48.4977 9.95931 47.9932 10.8057C47.5049 11.6357 46.8457 12.3031 46.0156 12.8076C45.1855 13.2959 44.2741 13.54 43.2812 13.54ZM21.6992 17.0557L26.9727 13.5889C27.347 13.3447 27.526 13.0599 27.5098 12.7344C27.4935 12.3926 27.3551 12.0996 27.0947 11.8555L22.7734 7.41211L14.9854 12.9053C14.2692 13.4098 13.5693 13.6051 12.8857 13.4912C12.2021 13.3773 11.6488 13.0843 11.2256 12.6123C10.721 12.0752 10.4688 11.4079 10.4688 10.6104C10.485 9.79655 10.9163 9.0804 11.7627 8.46191L21.4795 1.60156C22.1631 1.11328 22.8874 0.901693 23.6523 0.966797C24.4336 1.0319 25.1009 1.35742 25.6543 1.94336L39.7412 16.5674C38.6995 16.7952 37.7962 17.1126 37.0312 17.5195C36.2826 17.9264 35.5664 18.3496 34.8828 18.7891C34.1992 19.2122 33.4749 19.5703 32.71 19.8633C31.9613 20.1562 31.0579 20.3027 30 20.3027C28.8118 20.3027 27.7783 20.1156 26.8994 19.7412C26.0368 19.3506 25.2067 18.903 24.4092 18.3984C23.6117 17.8776 22.7083 17.43 21.6992 17.0557ZM2.2168 27.041C1.79362 27.041 1.43555 26.8945 1.14258 26.6016C0.849609 26.3086 0.703125 25.9587 0.703125 25.5518C0.703125 25.1123 0.849609 24.7542 1.14258 24.4775C1.43555 24.1846 1.79362 24.0381 2.2168 24.0381H4.78027C5.93587 24.0381 6.94499 23.8346 7.80762 23.4277C8.68652 23.0046 9.55729 22.5326 10.4199 22.0117C11.2826 21.4746 12.2591 21.0026 13.3496 20.5957C14.4401 20.1888 15.7829 19.9854 17.3779 19.9854C18.9404 19.9854 20.2669 20.1888 21.3574 20.5957C22.4479 21.0026 23.4245 21.4746 24.2871 22.0117C25.166 22.5326 26.0449 23.0046 26.9238 23.4277C27.819 23.8346 28.8444 24.0381 30 24.0381C31.1556 24.0381 32.1729 23.8346 33.0518 23.4277C33.9469 23.0046 34.8258 22.5326 35.6885 22.0117C36.5674 21.4746 37.5439 21.0026 38.6182 20.5957C39.7087 20.1888 41.0433 19.9854 42.6221 19.9854C44.2171 19.9854 45.5599 20.1888 46.6504 20.5957C47.7572 21.0026 48.7337 21.4746 49.5801 22.0117C50.4427 22.5326 51.3053 23.0046 52.168 23.4277C53.0469 23.8346 54.0641 24.0381 55.2197 24.0381H57.7832C58.2227 24.0381 58.5807 24.1846 58.8574 24.4775C59.1504 24.7542 59.2969 25.1123 59.2969 25.5518C59.2969 25.9587 59.1504 26.3086 58.8574 26.6016C58.5807 26.8945 58.2227 27.041 57.7832 27.041H55.2197C53.5433 27.041 52.1436 26.8457 51.0205 26.4551C49.9137 26.0482 48.9372 25.5762 48.0908 25.0391C47.2445 24.4857 46.3981 24.0137 45.5518 23.623C44.7054 23.2161 43.7288 23.0127 42.6221 23.0127C41.5316 23.0127 40.5713 23.2161 39.7412 23.623C38.9111 24.0137 38.0648 24.4857 37.2021 25.0391C36.3395 25.5762 35.3385 26.0482 34.1992 26.4551C33.0762 26.8457 31.6764 27.041 30 27.041C28.3236 27.041 26.9157 26.8457 25.7764 26.4551C24.6533 26.0482 23.6605 25.5762 22.7979 25.0391C21.9352 24.4857 21.0889 24.0137 20.2588 23.623C19.4287 23.2161 18.4684 23.0127 17.3779 23.0127C16.2712 23.0127 15.2946 23.2161 14.4482 23.623C13.6182 24.0137 12.7718 24.4857 11.9092 25.0391C11.0628 25.5762 10.0781 26.0482 8.95508 26.4551C7.83203 26.8457 6.44043 27.041 4.78027 27.041H2.2168ZM2.77832 34.1211C2.37142 34.1211 2.02148 33.9746 1.72852 33.6816C1.43555 33.3887 1.28906 33.0306 1.28906 32.6074C1.28906 32.2005 1.43555 31.8506 1.72852 31.5576C2.02148 31.2646 2.37142 31.1182 2.77832 31.1182C3.2015 31.1182 3.55957 31.2646 3.85254 31.5576C4.14551 31.8506 4.29199 32.2005 4.29199 32.6074C4.29199 33.0306 4.14551 33.3887 3.85254 33.6816C3.55957 33.9746 3.2015 34.1211 2.77832 34.1211ZM7.44141 33.291C7.01823 33.291 6.66016 33.1445 6.36719 32.8516C6.07422 32.5586 5.92773 32.2087 5.92773 31.8018C5.92773 31.3786 6.07422 31.0286 6.36719 30.752C6.66016 30.459 7.01823 30.3125 7.44141 30.3125C7.84831 30.3125 8.19824 30.459 8.49121 30.752C8.78418 31.0286 8.93066 31.3786 8.93066 31.8018C8.93066 32.2087 8.78418 32.5586 8.49121 32.8516C8.19824 33.1445 7.84831 33.291 7.44141 33.291ZM11.7627 31.2646C11.3558 31.2646 11.0059 31.1182 10.7129 30.8252C10.4199 30.5322 10.2734 30.1742 10.2734 29.751C10.2734 29.3441 10.4199 28.9941 10.7129 28.7012C11.0059 28.4082 11.3558 28.2617 11.7627 28.2617C12.1859 28.2617 12.5439 28.4082 12.8369 28.7012C13.1299 28.9941 13.2764 29.3441 13.2764 29.751C13.2764 30.1742 13.1299 30.5322 12.8369 30.8252C12.5439 31.1182 12.1859 31.2646 11.7627 31.2646ZM16.4258 30.0928C16.0026 30.0928 15.6445 29.9463 15.3516 29.6533C15.0586 29.3604 14.9121 29.0023 14.9121 28.5791C14.9121 28.1722 15.0586 27.8223 15.3516 27.5293C15.6445 27.2363 16.0026 27.0898 16.4258 27.0898C16.849 27.0898 17.207 27.2363 17.5 27.5293C17.793 27.8223 17.9395 28.1722 17.9395 28.5791C17.9395 29.0023 17.793 29.3604 17.5 29.6533C17.207 29.9463 16.849 30.0928 16.4258 30.0928ZM21.0645 31.2646C20.6413 31.2646 20.2832 31.1182 19.9902 30.8252C19.7135 30.5322 19.5752 30.1742 19.5752 29.751C19.5752 29.3441 19.7135 28.9941 19.9902 28.7012C20.2832 28.4082 20.6413 28.2617 21.0645 28.2617C21.4714 28.2617 21.8213 28.4082 22.1143 28.7012C22.4072 28.9941 22.5537 29.3441 22.5537 29.751C22.5537 30.1742 22.4072 30.5322 22.1143 30.8252C21.8213 31.1182 21.4714 31.2646 21.0645 31.2646ZM25.4346 33.291C25.0277 33.291 24.6777 33.1445 24.3848 32.8516C24.0918 32.5586 23.9453 32.2087 23.9453 31.8018C23.9453 31.3786 24.0918 31.0286 24.3848 30.752C24.6777 30.459 25.0277 30.3125 25.4346 30.3125C25.8577 30.3125 26.2158 30.459 26.5088 30.752C26.8018 31.0286 26.9482 31.3786 26.9482 31.8018C26.9482 32.2087 26.8018 32.5586 26.5088 32.8516C26.2158 33.1445 25.8577 33.291 25.4346 33.291ZM30.0488 34.1211C29.6094 34.1211 29.2432 33.9746 28.9502 33.6816C28.6572 33.3887 28.5107 33.0306 28.5107 32.6074C28.5107 32.2005 28.6572 31.8506 28.9502 31.5576C29.2432 31.2646 29.6094 31.1182 30.0488 31.1182C30.4557 31.1182 30.8057 31.2646 31.0986 31.5576C31.3916 31.8506 31.5381 32.2005 31.5381 32.6074C31.5381 33.0306 31.3916 33.3887 31.0986 33.6816C30.8057 33.9746 30.4557 34.1211 30.0488 34.1211ZM34.6143 33.291C34.2074 33.291 33.8574 33.1445 33.5645 32.8516C33.2715 32.5586 33.125 32.2087 33.125 31.8018C33.125 31.3786 33.2715 31.0286 33.5645 30.752C33.8574 30.459 34.2074 30.3125 34.6143 30.3125C35.0374 30.3125 35.3874 30.459 35.6641 30.752C35.957 31.0286 36.1035 31.3786 36.1035 31.8018C36.1035 32.2087 35.957 32.5586 35.6641 32.8516C35.3874 33.1445 35.0374 33.291 34.6143 33.291ZM38.9844 31.2646C38.5775 31.2646 38.2275 31.1182 37.9346 30.8252C37.6416 30.5322 37.4951 30.1742 37.4951 29.751C37.4951 29.3441 37.6416 28.9941 37.9346 28.7012C38.2275 28.4082 38.5775 28.2617 38.9844 28.2617C39.4076 28.2617 39.7656 28.4082 40.0586 28.7012C40.3516 28.9941 40.498 29.3441 40.498 29.751C40.498 30.1742 40.3516 30.5322 40.0586 30.8252C39.7656 31.1182 39.4076 31.2646 38.9844 31.2646ZM43.623 30.0928C43.2161 30.0928 42.8662 29.9463 42.5732 29.6533C42.2803 29.3604 42.1338 29.0023 42.1338 28.5791C42.1338 28.1722 42.2803 27.8223 42.5732 27.5293C42.8662 27.2363 43.2161 27.0898 43.623 27.0898C44.0462 27.0898 44.4043 27.2363 44.6973 27.5293C44.9902 27.8223 45.1367 28.1722 45.1367 28.5791C45.1367 29.0023 44.9902 29.3604 44.6973 29.6533C44.4043 29.9463 44.0462 30.0928 43.623 30.0928ZM48.2861 31.2646C47.8792 31.2646 47.5293 31.1182 47.2363 30.8252C46.9434 30.5322 46.7969 30.1742 46.7969 29.751C46.7969 29.3441 46.9434 28.9941 47.2363 28.7012C47.5293 28.4082 47.8792 28.2617 48.2861 28.2617C48.7093 28.2617 49.0592 28.4082 49.3359 28.7012C49.6289 28.9941 49.7754 29.3441 49.7754 29.751C49.7754 30.1742 49.6289 30.5322 49.3359 30.8252C49.0592 31.1182 48.7093 31.2646 48.2861 31.2646ZM52.6318 33.291C52.2087 33.291 51.8506 33.1445 51.5576 32.8516C51.2809 32.5586 51.1426 32.2087 51.1426 31.8018C51.1426 31.3786 51.2809 31.0286 51.5576 30.752C51.8506 30.459 52.2087 30.3125 52.6318 30.3125C53.0387 30.3125 53.3887 30.459 53.6816 30.752C53.9746 31.0286 54.1211 31.3786 54.1211 31.8018C54.1211 32.2087 53.9746 32.5586 53.6816 32.8516C53.3887 33.1445 53.0387 33.291 52.6318 33.291ZM57.2461 34.1211C56.8392 34.1211 56.4893 33.9746 56.1963 33.6816C55.9033 33.3887 55.7568 33.0306 55.7568 32.6074C55.7568 32.2005 55.9033 31.8506 56.1963 31.5576C56.4893 31.2646 56.8392 31.1182 57.2461 31.1182C57.6693 31.1182 58.0273 31.2646 58.3203 31.5576C58.6133 31.8506 58.7598 32.2005 58.7598 32.6074C58.7598 33.0306 58.6133 33.3887 58.3203 33.6816C58.0273 33.9746 57.6693 34.1211 57.2461 34.1211Z" fill="white" fill-opacity="0.6"/>
</svg>
